<svg width="154" height="35" viewBox="0 0 154 35" fill="none" xmlns="http://www.w3.org/2000/svg">
<path d="M35.144 34H27.416L26.84 20.992C26.68 17.888 26.6 15.12 26.6 12.688C26.6 10.832 26.648 9.07199 26.744 7.40799L21.608 30.496H14.168L8.69598 7.40799C8.88798 10.192 8.98398 12.816 8.98398 15.28C8.98398 17.136 8.93598 19.072 8.83998 21.088L8.26398 34H0.583984L3.07998 0.735992H13.016L18.008 23.296L22.664 0.735992H32.648L35.144 34Z" fill="#141414"/>
<path d="M59.9664 26.608C59.9664 27.568 60.0944 28.272 60.3504 28.72C60.6384 29.168 61.0864 29.504 61.6944 29.728L60.1104 34.672C58.5424 34.544 57.2624 34.208 56.2704 33.664C55.2784 33.088 54.5104 32.192 53.9664 30.976C52.3024 33.536 49.7424 34.816 46.2864 34.816C43.7584 34.816 41.7424 34.08 40.2384 32.608C38.7344 31.136 37.9824 29.216 37.9824 26.848C37.9824 24.064 39.0064 21.936 41.0544 20.464C43.1024 18.992 46.0624 18.256 49.9344 18.256H52.5264V17.152C52.5264 15.648 52.2064 14.624 51.5664 14.08C50.9264 13.504 49.8064 13.216 48.2064 13.216C47.3744 13.216 46.3664 13.344 45.1824 13.6C43.9984 13.824 42.7824 14.144 41.5344 14.56L39.8064 9.56799C41.4064 8.95999 43.0384 8.49599 44.7024 8.17599C46.3984 7.85599 47.9664 7.69599 49.4064 7.69599C53.0544 7.69599 55.7264 8.44799 57.4224 9.95199C59.1184 11.456 59.9664 13.712 59.9664 16.72V26.608ZM48.4944 29.392C50.2224 29.392 51.5664 28.576 52.5264 26.944V22.432H50.6544C48.9264 22.432 47.6304 22.736 46.7664 23.344C45.9344 23.952 45.5184 24.896 45.5184 26.176C45.5184 27.2 45.7744 28 46.2864 28.576C46.8304 29.12 47.5664 29.392 48.4944 29.392Z" fill="#141414"/>
<path d="M79.8312 7.79199C80.7592 7.79199 81.6072 7.90399 82.3752 8.12799L81.1752 15.472C80.2152 15.248 79.4472 15.136 78.8712 15.136C77.3672 15.136 76.2152 15.664 75.4152 16.72C74.6472 17.744 74.0392 19.296 73.5912 21.376V34H66.0072V8.51199H72.6312L73.2552 13.456C73.8312 11.696 74.6952 10.32 75.8472 9.32799C77.0312 8.30399 78.3592 7.79199 79.8312 7.79199Z" fill="#141414"/>
<path d="M94.8597 7.69599C96.6197 7.69599 98.2037 7.95199 99.6117 8.46399C101.02 8.97599 102.348 9.75999 103.596 10.816L100.332 15.328C98.7317 14.112 97.1157 13.504 95.4837 13.504C93.7877 13.504 92.5077 14.128 91.6437 15.376C90.7797 16.624 90.3477 18.64 90.3477 21.424C90.3477 24.112 90.7797 26.016 91.6437 27.136C92.5077 28.256 93.7557 28.816 95.3877 28.816C96.2517 28.816 97.0357 28.688 97.7397 28.432C98.4437 28.144 99.2917 27.696 100.284 27.088L103.596 31.792C101.068 33.808 98.2037 34.816 95.0037 34.816C92.4117 34.816 90.1717 34.272 88.2837 33.184C86.3957 32.064 84.9397 30.512 83.9157 28.528C82.8917 26.512 82.3797 24.16 82.3797 21.472C82.3797 18.784 82.8917 16.4 83.9157 14.32C84.9397 12.24 86.3957 10.624 88.2837 9.47199C90.1717 8.28799 92.3637 7.69599 94.8597 7.69599Z" fill="#141414"/>
<path d="M116.891 7.69599C120.795 7.69599 123.851 8.89599 126.059 11.296C128.267 13.664 129.371 16.992 129.371 21.28C129.371 24 128.859 26.384 127.835 28.432C126.843 30.448 125.403 32.016 123.515 33.136C121.659 34.256 119.451 34.816 116.891 34.816C113.019 34.816 109.963 33.632 107.723 31.264C105.515 28.864 104.411 25.52 104.411 21.232C104.411 18.512 104.907 16.144 105.899 14.128C106.923 12.08 108.363 10.496 110.219 9.37599C112.107 8.25599 114.331 7.69599 116.891 7.69599ZM116.891 13.264C115.355 13.264 114.203 13.92 113.435 15.232C112.667 16.512 112.283 18.512 112.283 21.232C112.283 24.016 112.651 26.048 113.387 27.328C114.155 28.608 115.323 29.248 116.891 29.248C118.427 29.248 119.579 28.608 120.347 27.328C121.115 26.016 121.499 24 121.499 21.28C121.499 18.496 121.115 16.464 120.347 15.184C119.611 13.904 118.459 13.264 116.891 13.264Z" fill="#141414"/>
<path d="M142.858 7.69599C144.682 7.69599 146.394 7.96799 147.994 8.51199C149.594 9.05599 151.002 9.82399 152.218 10.816L149.434 15.088C147.354 13.776 145.258 13.12 143.146 13.12C142.154 13.12 141.386 13.296 140.842 13.648C140.33 13.968 140.074 14.432 140.074 15.04C140.074 15.52 140.186 15.92 140.41 16.24C140.666 16.528 141.162 16.832 141.898 17.152C142.634 17.472 143.77 17.856 145.306 18.304C147.962 19.072 149.93 20.08 151.21 21.328C152.522 22.544 153.178 24.24 153.178 26.416C153.178 28.144 152.682 29.648 151.69 30.928C150.698 32.176 149.338 33.136 147.61 33.808C145.882 34.48 143.962 34.816 141.85 34.816C139.706 34.816 137.706 34.48 135.85 33.808C134.026 33.136 132.474 32.208 131.194 31.024L134.89 26.896C137.034 28.56 139.29 29.392 141.658 29.392C142.81 29.392 143.706 29.184 144.346 28.768C145.018 28.352 145.354 27.76 145.354 26.992C145.354 26.384 145.226 25.904 144.97 25.552C144.714 25.2 144.218 24.88 143.482 24.592C142.746 24.272 141.578 23.888 139.978 23.44C137.45 22.704 135.562 21.68 134.314 20.368C133.066 19.056 132.442 17.424 132.442 15.472C132.442 14 132.858 12.688 133.69 11.536C134.554 10.352 135.77 9.42399 137.338 8.75199C138.938 8.04799 140.778 7.69599 142.858 7.69599Z" fill="#141414"/>
</svg>
