<?xml version="1.0" standalone="no"?><svg xmlns="http://www.w3.org/2000/svg" viewBox="0 0 1440 320"><path fill="#0099ff" fill-opacity="1" d="M0,224L17.1,186.7C34.3,149,69,75,103,42.7C137.1,11,171,21,206,53.3C240,85,274,139,309,138.7C342.9,139,377,85,411,106.7C445.7,128,480,224,514,229.3C548.6,235,583,149,617,122.7C651.4,96,686,128,720,122.7C754.3,117,789,75,823,74.7C857.1,75,891,117,926,154.7C960,192,994,224,1029,213.3C1062.9,203,1097,149,1131,117.3C1165.7,85,1200,75,1234,112C1268.6,149,1303,235,1337,266.7C1371.4,299,1406,277,1423,266.7L1440,256L1440,320L1422.9,320C1405.7,320,1371,320,1337,320C1302.9,320,1269,320,1234,320C1200,320,1166,320,1131,320C1097.1,320,1063,320,1029,320C994.3,320,960,320,926,320C891.4,320,857,320,823,320C788.6,320,754,320,720,320C685.7,320,651,320,617,320C582.9,320,549,320,514,320C480,320,446,320,411,320C377.1,320,343,320,309,320C274.3,320,240,320,206,320C171.4,320,137,320,103,320C68.6,320,34,320,17,320L0,320Z"></path></svg>